<svg width="20" height="20" viewBox="0 0 20 20" fill="none" xmlns="http://www.w3.org/2000/svg">
<path d="M10.0003 9L6.75033 12.25C6.59755 12.4028 6.4031 12.4792 6.16699 12.4792C5.93088 12.4792 5.73644 12.4028 5.58366 12.25C5.43088 12.0972 5.35449 11.9028 5.35449 11.6667C5.35449 11.4306 5.43088 11.2361 5.58366 11.0833L9.41699 7.25C9.58366 7.08333 9.7781 7 10.0003 7C10.2225 7 10.417 7.08333 10.5837 7.25L14.417 11.0833C14.5698 11.2361 14.6462 11.4306 14.6462 11.6667C14.6462 11.9028 14.5698 12.0972 14.417 12.25C14.2642 12.4028 14.0698 12.4792 13.8337 12.4792C13.5975 12.4792 13.4031 12.4028 13.2503 12.25L10.0003 9Z" fill="#0B0B0B"/>
</svg>
