<svg width="25" height="25" viewBox="0 0 25 25" fill="none" xmlns="http://www.w3.org/2000/svg">
<g clip-path="url(#clip0_3_184)">
<path d="M3.125 12.5L12.5 3.125L21.875 12.5" stroke="black" stroke-width="2" stroke-linecap="round" stroke-linejoin="round"/>
<path d="M5.72913 14.5833V21.3542C5.72913 21.4923 5.784 21.6248 5.88167 21.7224C5.97935 21.8201 6.11183 21.875 6.24996 21.875H9.89579C10.0339 21.875 10.1664 21.8201 10.2641 21.7224C10.3618 21.6248 10.4166 21.4923 10.4166 21.3542V17.7083C10.4166 17.4321 10.5264 17.1671 10.7217 16.9718C10.9171 16.7764 11.182 16.6667 11.4583 16.6667H13.5416C13.8179 16.6667 14.0828 16.7764 14.2782 16.9718C14.4735 17.1671 14.5833 17.4321 14.5833 17.7083V21.3542C14.5833 21.4923 14.6382 21.6248 14.7358 21.7224C14.8335 21.8201 14.966 21.875 15.1041 21.875H18.75C18.8881 21.875 19.0206 21.8201 19.1182 21.7224C19.2159 21.6248 19.2708 21.4923 19.2708 21.3542V14.5833" stroke="black" stroke-width="2" stroke-linecap="round" stroke-linejoin="round"/>
</g>
<defs>
<clipPath id="clip0_3_184">
<rect width="25" height="25" fill="white"/>
</clipPath>
</defs>
</svg>
