<svg width="24" height="24" viewBox="0 0 24 24" fill="none" xmlns="http://www.w3.org/2000/svg">
<path d="M12 17.1157C13.1475 17.1157 14.1203 16.7167 14.9183 15.9187C15.7163 15.1207 16.1153 14.148 16.1153 13.0005C16.1153 11.853 15.7163 10.8802 14.9183 10.0822C14.1203 9.28424 13.1475 8.88524 12 8.88524C10.8525 8.88524 9.87975 9.28424 9.08175 10.0822C8.28375 10.8802 7.88475 11.853 7.88475 13.0005C7.88475 14.148 8.28375 15.1207 9.08175 15.9187C9.87975 16.7167 10.8525 17.1157 12 17.1157ZM12 15.616C11.2615 15.616 10.641 15.3647 10.1385 14.862C9.63583 14.3595 9.3845 13.739 9.3845 13.0005C9.3845 12.262 9.63583 11.6415 10.1385 11.139C10.641 10.6363 11.2615 10.385 12 10.385C12.7385 10.385 13.359 10.6363 13.8615 11.139C14.3642 11.6415 14.6155 12.262 14.6155 13.0005C14.6155 13.739 14.3642 14.3595 13.8615 14.862C13.359 15.3647 12.7385 15.616 12 15.616ZM4.30775 20.5005C3.80258 20.5005 3.375 20.3255 3.025 19.9755C2.675 19.6255 2.5 19.1979 2.5 18.6927V7.30824C2.5 6.80307 2.675 6.37549 3.025 6.02549C3.375 5.67549 3.80258 5.50049 4.30775 5.50049H7.3615L8.66925 4.08324C8.83342 3.9024 9.03183 3.76007 9.2645 3.65624C9.49717 3.5524 9.74233 3.50049 10 3.50049H14C14.2577 3.50049 14.5028 3.5524 14.7355 3.65624C14.9682 3.76007 15.1666 3.9024 15.3308 4.08324L16.6385 5.50049H19.6923C20.1974 5.50049 20.625 5.67549 20.975 6.02549C21.325 6.37549 21.5 6.80307 21.5 7.30824V18.6927C21.5 19.1979 21.325 19.6255 20.975 19.9755C20.625 20.3255 20.1974 20.5005 19.6923 20.5005H4.30775ZM4.30775 19.0005H19.6923C19.7821 19.0005 19.8558 18.9717 19.9135 18.914C19.9712 18.8563 20 18.7826 20 18.6927V7.30824C20 7.2184 19.9712 7.14466 19.9135 7.08699C19.8558 7.02932 19.7821 7.00049 19.6923 7.00049H15.9693L14.1345 5.00049H9.8655L8.03075 7.00049H4.30775C4.21792 7.00049 4.14417 7.02932 4.0865 7.08699C4.02883 7.14466 4 7.2184 4 7.30824V18.6927C4 18.7826 4.02883 18.8563 4.0865 18.914C4.14417 18.9717 4.21792 19.0005 4.30775 19.0005Z" fill="#B8B8B8"/>
</svg>
