<svg width="18" height="18" viewBox="0 0 18 18" fill="none" xmlns="http://www.w3.org/2000/svg">
<path d="M0 0.960328C1.2766 1.04241 2.39362 1.09166 3.35106 1.10807C4.32979 1.12449 5.15957 1.13269 5.84043 1.13269C6.62766 1.13269 7.30851 1.11628 7.88298 1.08345C8.47872 1.0342 9.25532 0.968536 10.2128 0.886457C11.0213 0.804378 12.0638 0.697674 13.3404 0.566347C14.617 0.418605 16.1702 0.229822 18 0C17.766 0.27907 17.5638 0.574555 17.3936 0.886457C17.2447 1.18194 17.117 1.4528 17.0106 1.69904C16.9043 1.99453 16.8085 2.28181 16.7234 2.56088C16.6596 2.87278 16.5851 3.25855 16.5 3.71819C16.4149 4.11218 16.3085 4.61286 16.1809 5.22025C16.0745 5.81122 15.9362 6.5171 15.766 7.33789C15.1277 6.05746 14.4787 5.0725 13.8191 4.38304C13.1809 3.69357 12.5851 3.18468 12.0319 2.85636C11.3936 2.4788 10.7872 2.26539 10.2128 2.21614C9.38298 2.21614 8.70213 2.33926 8.17021 2.5855C7.6383 2.83174 7.20213 3.15185 6.8617 3.54583C6.54255 3.92339 6.29787 4.342 6.12766 4.80164C5.95745 5.24487 5.84043 5.67989 5.7766 6.1067C5.71277 6.5171 5.67021 6.88646 5.64894 7.21477C5.62766 7.52668 5.60638 7.74008 5.58511 7.85499C6.32979 7.82216 6.95745 7.78112 7.46808 7.73187C7.97872 7.68263 8.38298 7.63338 8.68085 7.58413C9.04255 7.51847 9.32979 7.4528 9.54255 7.38714C9.8617 7.25581 10.1809 7.09986 10.5 6.91929C10.7766 6.75513 11.0638 6.55814 11.3617 6.32832C11.6809 6.0985 11.9574 5.81943 12.1915 5.49111C12.0638 6.08208 11.9468 6.57456 11.8404 6.96854C11.7553 7.36252 11.6809 7.67442 11.617 7.90424C11.5319 8.18331 11.4787 8.39672 11.4574 8.54446C11.4149 8.6922 11.3617 8.8974 11.2979 9.16005C11.234 9.38988 11.1596 9.68536 11.0745 10.0465C10.9894 10.4077 10.8936 10.8591 10.7872 11.4008C10.5319 11.0561 10.266 10.777 9.98936 10.5636C9.71277 10.3338 9.45745 10.1532 9.2234 10.0219C8.94681 9.87415 8.68085 9.75923 8.42553 9.67715C8.14894 9.61149 7.85106 9.54583 7.53191 9.48016C7.25532 9.43092 6.92553 9.38167 6.54255 9.33242C6.18085 9.26676 5.78723 9.2093 5.3617 9.16005C5.40426 10.0465 5.46808 10.8098 5.55319 11.4501C5.6383 12.0739 5.71277 12.5992 5.7766 13.026C5.8617 13.5185 5.94681 13.9289 6.03191 14.2572C6.1383 14.5855 6.30851 14.9384 6.54255 15.316C6.73404 15.6443 7 16.0219 7.34043 16.4487C7.70213 16.8591 8.15957 17.3023 8.71277 17.7784C8.28723 17.6963 7.84043 17.6389 7.37234 17.606C6.90426 17.5732 6.48936 17.5486 6.12766 17.5321C5.68085 17.5157 5.25532 17.5157 4.85106 17.5321C4.42553 17.5486 3.95745 17.5814 3.44681 17.6306C3.02128 17.6635 2.53191 17.7127 1.97872 17.7784C1.42553 17.844 0.840425 17.9179 0.223404 18C0.585106 17.7209 0.882979 17.4419 1.11702 17.1628C1.35106 16.8837 1.52128 16.6375 1.62766 16.4241C1.75532 16.1778 1.84043 15.9398 1.88298 15.71C1.90426 15.513 1.91489 15.0862 1.91489 14.4295C1.91489 13.7565 1.90426 12.9767 1.88298 12.0903C1.8617 11.1874 1.82979 10.2353 1.78723 9.23393C1.74468 8.23256 1.70213 7.29685 1.65957 6.42681C1.61702 5.54036 1.56383 4.78523 1.5 4.16142C1.45745 3.53762 1.40426 3.16005 1.34043 3.02873C1.25532 2.86457 1.15957 2.67579 1.05319 2.46238C0.882979 2.11765 0.531915 1.61696 0 0.960328Z" fill="white"/>
</svg>
