<svg width="20" height="20" viewBox="0 0 20 20" fill="none" xmlns="http://www.w3.org/2000/svg">
<g clip-path="url(#clip0_21_699)">
<path d="M10 19.1667C15.0627 19.1667 19.1667 15.0626 19.1667 10C19.1667 4.93738 15.0627 0.833328 10 0.833328C4.93743 0.833328 0.833374 4.93738 0.833374 10C0.833374 15.0626 4.93743 19.1667 10 19.1667Z" stroke="black" stroke-width="2" stroke-miterlimit="10"/>
<path d="M6.25 8.75C6.94036 8.75 7.5 8.19036 7.5 7.5C7.5 6.80964 6.94036 6.25 6.25 6.25C5.55964 6.25 5 6.80964 5 7.5C5 8.19036 5.55964 8.75 6.25 8.75Z" fill="black"/>
<path d="M13.75 8.75C14.4404 8.75 15 8.19036 15 7.5C15 6.80964 14.4404 6.25 13.75 6.25C13.0596 6.25 12.5 6.80964 12.5 7.5C12.5 8.19036 13.0596 8.75 13.75 8.75Z" fill="black"/>
<path d="M14.0833 11.6667C13.892 12.6086 13.381 13.4554 12.6368 14.0637C11.8927 14.6719 10.9611 15.0042 9.99996 15.0042C9.03883 15.0042 8.10725 14.6719 7.36308 14.0637C6.6189 13.4554 6.10789 12.6086 5.91663 11.6667" stroke="black" stroke-width="2" stroke-miterlimit="10" stroke-linecap="round"/>
</g>
<defs>
<clipPath id="clip0_21_699">
<rect width="20" height="20" fill="white"/>
</clipPath>
</defs>
</svg>
