<svg width="186" height="41" viewBox="0 0 186 41" fill="none" xmlns="http://www.w3.org/2000/svg">
<path d="M167.883 11.6299C168.377 11.6567 168.818 11.6701 169.208 11.6701C169.624 11.6433 169.974 11.6165 170.26 11.5896C170.598 11.5628 170.897 11.536 171.157 11.5092C171.546 11.4555 171.949 11.3884 172.365 11.3079C172.728 11.2543 173.105 11.1872 173.495 11.1067C173.91 10.9994 174.313 10.8786 174.703 10.7445C174.547 11.1469 174.417 11.4957 174.313 11.7909C174.209 12.086 174.131 12.3409 174.079 12.5556C174.001 12.797 173.962 12.9983 173.962 13.1592C173.936 13.3471 173.923 13.5751 173.923 13.8434C173.897 14.2995 173.897 15.0374 173.923 16.0569C175.274 14.8496 176.404 13.9105 177.314 13.2397C178.249 12.569 178.989 12.0458 179.535 11.6701C180.184 11.2409 180.691 10.9591 181.055 10.825C182.016 10.664 182.86 10.8921 183.588 11.5092C183.9 11.7775 184.198 12.1397 184.484 12.5958C184.77 13.0251 185.017 13.6019 185.225 14.3264C185.432 15.0508 185.588 15.9228 185.692 16.9424C185.796 17.9351 185.809 19.1291 185.731 20.5242C185.186 20.5779 184.692 20.6316 184.25 20.6852C183.835 20.7389 183.484 20.7791 183.198 20.806C182.86 20.8596 182.549 20.8865 182.263 20.8865L181.211 21.0072C180.847 21.0609 180.392 21.1145 179.847 21.1682C179.327 21.195 178.691 21.2487 177.937 21.3292C179.028 20.4169 179.73 19.6254 180.042 18.9547C180.379 18.2571 180.522 17.6802 180.47 17.2241C180.418 16.7143 180.184 16.2716 179.769 15.896C179.275 15.6008 178.743 15.4935 178.171 15.574C177.677 15.6277 177.106 15.8557 176.456 16.2582C175.807 16.6606 175.118 17.4119 174.391 18.512C174.443 20.2291 174.495 21.6511 174.547 22.778C174.625 23.9049 174.69 24.8172 174.742 25.5147C174.82 26.3197 174.885 26.9502 174.937 27.4063C175.015 27.8088 175.17 28.2381 175.404 28.6942C175.586 29.0698 175.846 29.4857 176.184 29.9418C176.521 30.3979 176.963 30.854 177.509 31.3102C176.365 31.2565 175.43 31.2565 174.703 31.3102C174.261 31.337 173.871 31.3638 173.534 31.3907C173.17 31.4443 172.78 31.498 172.365 31.5516C172.001 31.6053 171.572 31.659 171.079 31.7126C170.611 31.7931 170.091 31.8736 169.52 31.9541C169.728 31.659 169.896 31.3102 170.026 30.9077C170.156 30.5321 170.26 30.1699 170.338 29.8211C170.442 29.4186 170.52 29.0027 170.572 28.5734C170.598 28.1978 170.611 27.6344 170.611 26.8831C170.637 26.1319 170.624 25.2867 170.572 24.3476C170.546 23.3817 170.507 22.389 170.455 21.3694C170.403 20.323 170.338 19.3437 170.26 18.4315C170.182 17.5192 170.091 16.7277 169.987 16.0569C169.909 15.3594 169.819 14.8764 169.715 14.6081C169.585 14.2861 169.429 13.9642 169.247 13.6422C169.091 13.3471 168.896 13.0385 168.662 12.7165C168.429 12.3677 168.169 12.0055 167.883 11.6299Z" fill="white"/>
<path d="M156.348 24.4281C157.075 24.4281 157.751 24.3476 158.374 24.1866C158.894 24.0525 159.388 23.8378 159.855 23.5427C160.349 23.2207 160.674 22.7512 160.829 22.1341C161.349 22.2414 161.791 22.3353 162.154 22.4158C162.518 22.4695 162.83 22.5231 163.09 22.5768C163.375 22.6573 163.622 22.7109 163.83 22.7378C164.038 22.7914 164.285 22.8451 164.57 22.8988C164.83 22.9524 165.142 23.0195 165.506 23.1C165.895 23.1537 166.35 23.2341 166.87 23.3415C166.48 23.2878 166.077 23.3281 165.662 23.4622C165.272 23.5964 164.895 23.7439 164.531 23.9049C164.116 24.0927 163.726 24.3208 163.362 24.5891C163.129 24.7501 162.856 24.9916 162.544 25.3135C162.258 25.6355 161.843 25.944 161.297 26.2392C160.751 26.5343 160.024 26.7892 159.115 27.0038C158.231 27.1917 157.088 27.2587 155.685 27.2051C153.997 27.1514 152.581 26.8429 151.438 26.2794C150.295 25.6891 149.372 24.9781 148.671 24.1464C147.969 23.2878 147.463 22.3622 147.151 21.3694C146.839 20.3767 146.67 19.451 146.644 18.5924C146.618 17.7339 146.865 16.835 147.385 15.896C147.904 14.9569 148.632 14.0983 149.567 13.3202C150.528 12.5421 151.685 11.9116 153.035 11.4287C154.386 10.9189 155.867 10.664 157.478 10.664C158.413 10.664 159.271 10.7847 160.05 11.0262C160.855 11.2409 161.583 11.536 162.232 11.9116C162.908 12.2872 163.492 12.7165 163.986 13.1995C164.48 13.6556 164.895 14.1251 165.233 14.6081C165.571 15.1179 165.856 15.6545 166.09 16.2179C166.298 16.7009 166.467 17.2509 166.597 17.868C166.727 18.4851 166.766 19.1156 166.714 19.7596C164.739 19.8132 163.142 19.8535 161.921 19.8803C160.725 19.9071 159.79 19.9206 159.115 19.9206H157.361H156.036C155.568 19.9206 154.958 19.934 154.205 19.9608C153.451 19.9876 152.529 20.0279 151.438 20.0815C151.568 21.1548 151.892 21.9865 152.412 22.5768C152.958 23.1402 153.529 23.5695 154.127 23.8647C154.802 24.1866 155.543 24.3744 156.348 24.4281ZM152.841 17.1838C153.672 17.2375 154.36 17.2777 154.906 17.3046C155.478 17.3314 155.945 17.3582 156.309 17.3851C156.699 17.4119 157.01 17.4253 157.244 17.4253H158.218C158.868 17.4253 160.076 17.3851 161.843 17.3046C161.765 16.124 161.518 15.2252 161.102 14.6081C160.712 13.991 160.297 13.5349 159.855 13.2397C159.336 12.9178 158.764 12.73 158.14 12.6763C156.452 12.7031 155.192 13.0653 154.36 13.7629C153.555 14.4605 153.048 15.6008 152.841 17.1838Z" fill="white"/>
<path d="M139.357 13.8434C139.279 13.3068 139.214 12.8641 139.162 12.5153C139.11 12.1397 139.058 11.8445 139.006 11.6299C138.955 11.3616 138.916 11.1604 138.89 11.0262C138.838 10.8921 138.773 10.7445 138.695 10.5835C138.643 10.4493 138.552 10.2884 138.422 10.1005C138.318 9.91273 138.188 9.69809 138.032 9.45661C138.37 9.56393 138.708 9.63101 139.045 9.65784C139.409 9.68467 139.747 9.7115 140.059 9.73833C140.396 9.76516 140.747 9.76516 141.111 9.73833C141.475 9.73833 141.89 9.72492 142.358 9.69809C142.774 9.67126 143.267 9.65784 143.839 9.65784C144.436 9.63101 145.112 9.59076 145.865 9.5371C145.423 9.64443 145.047 9.83224 144.735 10.1005C144.449 10.342 144.202 10.6103 143.995 10.9055C143.761 11.2274 143.566 11.5762 143.41 11.9519C143.28 12.3007 143.202 12.9714 143.176 13.9642C143.15 14.9301 143.15 16.0838 143.176 17.4253C143.202 18.74 143.228 20.162 143.254 21.6914C143.306 23.2207 143.332 24.683 143.332 26.0782C143.358 27.4734 143.358 28.7478 143.332 29.9016C143.306 31.0284 143.241 31.8602 143.137 32.3968C142.774 34.0871 142.098 35.4555 141.111 36.5019C140.124 37.5751 138.825 38.152 137.214 38.2325C135.265 38.313 133.72 38.1251 132.576 37.669C131.459 37.2129 130.589 36.6495 129.966 35.9787C129.342 35.3348 128.874 34.6774 128.563 34.0066C128.251 33.3359 127.926 32.8261 127.588 32.4773C127.277 32.1822 126.965 31.9004 126.653 31.6321C126.367 31.4175 126.069 31.2028 125.757 30.9882C125.471 30.7735 125.185 30.6394 124.899 30.5857C125.653 30.6126 126.328 30.626 126.926 30.626C127.523 30.626 128.03 30.626 128.446 30.626C128.913 30.626 129.329 30.6126 129.693 30.5857H130.94H134.486C133.966 30.7467 133.577 30.9211 133.317 31.1089C133.057 31.3236 132.875 31.5382 132.771 31.7529C132.667 31.9943 132.615 32.2358 132.615 32.4773C132.719 33.1212 133.057 33.5908 133.629 33.8859C134.2 34.181 134.98 34.3554 135.967 34.4091C136.928 34.4628 137.591 34.4359 137.954 34.3286C138.318 34.2481 138.604 34.0871 138.812 33.8457C139.227 33.2017 139.578 32.37 139.864 31.3504C140.072 30.4918 140.215 29.3784 140.292 28.01C140.396 26.6148 140.279 24.9111 139.942 22.8988C139.11 24.0793 138.149 24.9647 137.058 25.555C135.967 26.1453 134.928 26.5746 133.94 26.8429C132.771 27.138 131.589 27.2856 130.394 27.2856C127.251 27.1514 124.899 26.4002 123.341 25.0318C121.782 23.6634 121.067 21.8255 121.197 19.5181C121.275 18.3644 121.613 17.2107 122.211 16.0569C122.834 14.9032 123.639 13.8703 124.627 12.958C125.64 12.0458 126.796 11.3213 128.095 10.7847C129.394 10.2481 130.745 10.0201 132.148 10.1005C133.213 10.2079 134.213 10.4091 135.148 10.7042C135.954 10.9725 136.746 11.3482 137.526 11.8311C138.331 12.3141 138.942 12.9848 139.357 13.8434ZM126.965 17.868C126.809 18.9144 126.874 19.8937 127.16 20.806C127.471 21.7182 127.9 22.5097 128.446 23.1805C128.991 23.8244 129.602 24.3342 130.277 24.7098C130.953 25.0586 131.589 25.2196 132.187 25.1928C133.434 25.1659 134.512 24.5891 135.421 23.4622C136.331 22.3085 136.876 20.5913 137.058 18.3107C137.136 17.1838 136.993 16.2179 136.629 15.413C136.292 14.5813 135.863 13.9105 135.343 13.4007C134.824 12.8909 134.278 12.5287 133.707 12.3141C133.135 12.0994 132.68 12.0055 132.343 12.0324C131.875 12.086 131.355 12.2336 130.784 12.4751C130.238 12.6897 129.706 13.0251 129.186 13.4812C128.667 13.9105 128.199 14.4874 127.783 15.2118C127.394 15.9362 127.121 16.8216 126.965 17.868Z" fill="white"/>
<path d="M98.7899 26.4807C98.9718 25.5952 99.1017 24.8172 99.1796 24.1464C99.2835 23.4488 99.3615 22.8719 99.4134 22.4158C99.4654 21.8792 99.4914 21.4231 99.4914 21.0474C99.4654 20.5913 99.4394 20.0547 99.4134 19.4376C99.4134 18.7937 99.3875 18.1632 99.3355 17.5461C99.3095 16.9021 99.2705 16.3387 99.2186 15.8557C99.1666 15.3459 99.1017 14.9837 99.0237 14.7691C98.9198 14.5544 98.7769 14.3264 98.5951 14.0849C98.2314 13.6288 97.6988 13.1861 96.9973 12.7568C97.5948 12.6226 98.1015 12.5153 98.5171 12.4348C98.9588 12.3275 99.3225 12.2336 99.6083 12.1531C99.92 12.0458 100.193 11.9519 100.427 11.8714C100.634 11.7909 100.881 11.7104 101.167 11.6299C101.401 11.5762 101.687 11.5092 102.024 11.4287C102.362 11.3482 102.752 11.2543 103.193 11.1469L103.077 14.8093C103.908 13.7898 104.752 13.0251 105.61 12.5153C106.467 12.0055 107.272 11.6433 108.026 11.4287C108.883 11.1604 109.727 11.0262 110.559 11.0262C111.598 11.0799 112.559 11.2543 113.443 11.5494C114.352 11.8445 115.131 12.1933 115.781 12.5958C116.456 12.9714 117.002 13.3739 117.417 13.8032C117.833 14.2325 118.08 14.6081 118.158 14.9301C118.47 15.9765 118.548 16.9424 118.392 17.8278C118.236 18.6864 118.028 19.5315 117.768 20.3633C117.534 21.1682 117.326 21.9731 117.145 22.778C116.989 23.5829 117.054 24.4549 117.339 25.394C117.443 25.6355 117.547 25.877 117.651 26.1184C117.755 26.3331 117.885 26.5477 118.041 26.7624C118.197 26.977 118.379 27.1514 118.586 27.2856C118.301 27.2587 118.015 27.2453 117.729 27.2453C117.443 27.2185 117.184 27.1917 116.95 27.1648C116.664 27.138 116.404 27.1112 116.17 27.0843C115.911 27.0575 115.56 27.0441 115.118 27.0441C114.365 27.0441 113.196 27.0843 111.611 27.1648C111.845 26.6014 112.027 26.1319 112.157 25.7562C112.312 25.3538 112.442 25.0318 112.546 24.7903C112.65 24.4952 112.728 24.2671 112.78 24.1061C113.092 23.3281 113.274 22.4426 113.326 21.4499C113.404 20.4572 113.339 19.451 113.131 18.4315C113.053 18.0827 112.923 17.6668 112.741 17.1838C112.559 16.7009 112.312 16.2313 112.001 15.7752C111.715 15.3191 111.364 14.9301 110.948 14.6081C110.559 14.2861 110.104 14.0983 109.585 14.0447C109.065 13.991 108.48 14.1251 107.831 14.4471C107.207 14.7691 106.532 15.3594 105.804 16.2179C105.259 16.9424 104.83 17.8278 104.518 18.8742C104.233 19.7596 104.038 20.873 103.934 22.2146C103.83 23.5293 103.986 25.072 104.402 26.8429C104.038 26.7892 103.7 26.7624 103.388 26.7624C103.077 26.7355 102.817 26.7087 102.609 26.6819C102.349 26.6551 102.115 26.6282 101.907 26.6014C101.674 26.6014 101.414 26.588 101.128 26.5611C100.868 26.5611 100.544 26.5611 100.154 26.5611C99.7642 26.5343 99.3095 26.5075 98.7899 26.4807Z" fill="white"/>
<path d="M88.0342 12.9178L95.2046 12.9983C94.7889 14.6349 94.4772 16.0301 94.2693 17.1838C94.0875 18.3376 93.9706 19.3035 93.9186 20.0815C93.8147 20.967 93.7887 21.7182 93.8407 22.3353C93.9186 22.8988 94.0485 23.5024 94.2304 24.1464C94.3862 24.683 94.62 25.3001 94.9318 25.9977C95.2436 26.6953 95.6592 27.3929 96.1788 28.0905C95.8671 27.9832 95.5293 27.9027 95.1656 27.849C94.8019 27.7953 94.4642 27.7551 94.1524 27.7283C93.7887 27.7014 93.425 27.7014 93.0613 27.7283C92.6975 27.7551 92.2949 27.7953 91.8532 27.849C91.4895 27.9027 91.0478 27.9697 90.5282 28.0502C90.0086 28.1307 89.4631 28.2381 88.8915 28.3722C89.2812 27.1648 89.58 26.1184 89.7878 25.233C90.0216 24.3476 90.1905 23.6098 90.2944 23.0195C90.3983 22.3219 90.4633 21.7585 90.4893 21.3292C90.4893 20.7926 90.4893 20.1889 90.4893 19.5181C90.4893 18.8205 90.4893 18.1497 90.4893 17.5058C90.4893 16.8619 90.4763 16.2984 90.4503 15.8155C90.4243 15.3057 90.3724 14.9837 90.2944 14.8496L89.9047 14.4471C89.7488 14.313 89.515 14.1251 89.2033 13.8837C88.9175 13.6154 88.5278 13.2934 88.0342 12.9178ZM90.801 6.71989C91.3466 6.42475 91.8922 6.34426 92.4377 6.47841C93.0093 6.61256 93.451 6.86746 93.7627 7.24308C94.0745 7.61871 94.1784 8.06142 94.0745 8.5712C93.9965 9.08098 93.5809 9.57735 92.8274 10.0603C92.074 10.5164 91.4115 10.6774 90.84 10.5433C90.2684 10.4091 89.8658 10.1274 89.6319 9.69809C89.3981 9.2688 89.3591 8.77243 89.515 8.20899C89.6709 7.61871 90.0996 7.12235 90.801 6.71989Z" fill="white"/>
<path d="M67.6531 3.138C69.2119 3.27215 70.5758 3.35264 71.7449 3.37947C72.94 3.4063 73.9532 3.41972 74.7845 3.41972C75.7458 3.41972 76.5771 3.39289 77.2786 3.33923C78.006 3.25874 78.9543 3.15141 80.1234 3.01726C81.1106 2.88311 82.3836 2.70871 83.9424 2.49406C85.5012 2.25259 87.3977 1.94403 89.632 1.56841C89.3462 2.02453 89.0994 2.50748 88.8915 3.01726C88.7097 3.50021 88.5538 3.94292 88.4239 4.34538C88.294 4.82833 88.1771 5.29786 88.0732 5.75398C87.9952 6.26377 87.9043 6.89429 87.8004 7.64554C87.6965 8.28948 87.5666 9.10781 87.4107 10.1005C87.2808 11.0664 87.1119 12.2202 86.9041 13.5617C86.1247 11.4689 85.3323 9.85907 84.5269 8.73218C83.7475 7.6053 83.0201 6.77355 82.3446 6.23694C81.5652 5.61983 80.8248 5.27103 80.1234 5.19054C79.1101 5.19054 78.2788 5.39177 77.6293 5.79423C76.9798 6.19669 76.4472 6.71989 76.0315 7.36382C75.6419 7.98093 75.3431 8.66511 75.1352 9.41637C74.9274 10.1408 74.7845 10.8518 74.7066 11.5494C74.6286 12.2202 74.5767 12.8239 74.5507 13.3605C74.5247 13.8703 74.4987 14.219 74.4728 14.4069C75.3821 14.3532 76.1485 14.2861 76.772 14.2056C77.3955 14.1251 77.8891 14.0446 78.2528 13.9642C78.6945 13.8568 79.0452 13.7495 79.305 13.6422C79.6947 13.4275 80.0844 13.1727 80.4741 12.8775C80.8118 12.6092 81.1626 12.2872 81.5263 11.9116C81.916 11.536 82.2537 11.0799 82.5395 10.5433C82.3836 11.5092 82.2407 12.3141 82.1108 12.958C82.0069 13.6019 81.916 14.1117 81.838 14.4874C81.7341 14.9435 81.6692 15.2923 81.6432 15.5337C81.5912 15.7752 81.5263 16.1106 81.4483 16.5399C81.3704 16.9155 81.2795 17.3985 81.1755 17.9888C81.0716 18.579 80.9547 19.3169 80.8248 20.2023C80.5131 19.6388 80.1883 19.1827 79.8506 18.8339C79.5128 18.4583 79.2011 18.1632 78.9153 17.9485C78.5776 17.707 78.2528 17.5192 77.9411 17.3851C77.6033 17.2777 77.2396 17.1704 76.8499 17.0631C76.5122 16.9826 76.1095 16.9021 75.6419 16.8216C75.2002 16.7143 74.7196 16.6204 74.2 16.5399C74.2519 17.9888 74.3299 19.2364 74.4338 20.2828C74.5377 21.3023 74.6286 22.1609 74.7066 22.8585C74.8105 23.6634 74.9144 24.3342 75.0183 24.8708C75.1482 25.4074 75.3561 25.9843 75.6419 26.6014C75.8757 27.138 76.2004 27.7551 76.6161 28.4527C77.0577 29.1235 77.6163 29.8479 78.2918 30.626C77.7722 30.4918 77.2266 30.3979 76.6551 30.3443C76.0835 30.2906 75.5769 30.2504 75.1352 30.2235C74.5897 30.1967 74.0701 30.1967 73.5765 30.2235C73.0569 30.2504 72.4853 30.304 71.8618 30.3845C71.3422 30.4382 70.7447 30.5187 70.0692 30.626C69.3937 30.7333 68.6793 30.854 67.9259 30.9882C68.3675 30.5321 68.7312 30.076 69.017 29.6198C69.3028 29.1637 69.5106 28.7613 69.6405 28.4125C69.7964 28.01 69.9003 27.621 69.9523 27.2453C69.9783 26.9234 69.9913 26.2258 69.9913 25.1525C69.9913 24.0525 69.9783 22.778 69.9523 21.3292C69.9263 19.8535 69.8873 18.2973 69.8354 16.6606C69.7834 15.024 69.7315 13.4946 69.6795 12.0726C69.6275 10.6237 69.5626 9.38953 69.4846 8.36997C69.4327 7.35041 69.3677 6.7333 69.2898 6.51866C69.1859 6.25035 69.069 5.9418 68.9391 5.593C68.7312 5.02956 68.3026 4.21122 67.6531 3.138Z" fill="white"/>
<path d="M29.9695 10.342C30.4891 10.4225 30.9567 10.4896 31.3724 10.5433C31.7621 10.5701 32.1128 10.5969 32.4246 10.6238C32.7623 10.6506 33.0871 10.664 33.3988 10.664C33.6846 10.664 34.0483 10.6506 34.49 10.6238C34.8537 10.5969 35.3213 10.5701 35.8929 10.5433C36.4904 10.4896 37.1919 10.4225 37.9972 10.342C37.9453 10.4494 37.8413 10.7847 37.6855 11.3482C37.5296 11.8848 37.3737 12.5556 37.2178 13.3605C37.062 14.1386 36.9191 15.0106 36.7892 15.9765C36.6853 16.9155 36.6333 17.8546 36.6333 18.7937C36.6593 19.7059 36.7762 20.5779 36.984 21.4097C37.1919 22.2146 37.5296 22.8719 37.9972 23.3817C38.9845 24.4281 39.8548 25.0586 40.6082 25.2733C41.3876 25.4879 42.0631 25.4611 42.6346 25.1928C43.2062 24.9245 43.6738 24.522 44.0375 23.9854C44.4012 23.4488 44.661 22.9524 44.8169 22.4963C45.2066 21.2621 45.4404 19.9608 45.5184 18.5924C45.5703 17.4119 45.4794 16.0972 45.2456 14.6483C45.0118 13.1995 44.4532 11.7238 43.5699 10.2213C44.2454 10.275 44.8299 10.3152 45.3235 10.342C45.8171 10.3689 46.2458 10.3957 46.6095 10.4225C47.0252 10.4494 47.3889 10.4762 47.7007 10.503C47.9864 10.5298 48.3242 10.5298 48.7139 10.503C49.0516 10.503 49.4543 10.4896 49.9219 10.4628C50.4156 10.4091 50.9611 10.3554 51.5587 10.3018C51.6626 12.9312 51.7535 15.2789 51.8314 17.3448C51.9094 19.384 51.9613 21.195 51.9873 22.778C52.0393 24.3342 52.0653 25.6892 52.0653 26.8429C52.0653 27.9698 52.0653 28.9222 52.0653 29.7003C52.0393 31.5516 51.9613 32.7724 51.8314 33.3627C51.6236 34.1945 51.2469 35.0262 50.7013 35.858C50.1817 36.6897 49.5193 37.4276 48.7139 38.0715C47.9085 38.7423 46.9732 39.252 45.9081 39.6008C44.8689 39.9765 43.7258 40.1106 42.4787 40.0033C41.2577 39.896 40.2834 39.7216 39.556 39.4801C38.8546 39.2655 38.296 39.0106 37.8803 38.7154C37.4906 38.4203 37.2048 38.1117 37.023 37.7898C36.8671 37.4678 36.7502 37.1324 36.6723 36.7836C36.5943 36.4617 36.5164 36.1531 36.4384 35.858C36.3605 35.5628 36.2046 35.3079 35.9708 35.0933C35.685 34.8518 35.3863 34.6103 35.0745 34.3689C34.7887 34.1542 34.477 33.9396 34.1392 33.7249C33.8275 33.5103 33.5157 33.3359 33.204 33.2017L41.5045 32.7188C41.2707 33.0407 41.1018 33.3359 40.9979 33.6042C40.894 33.8725 40.829 34.1006 40.803 34.2884C40.7771 34.5298 40.7901 34.7311 40.842 34.8921C40.9459 35.214 41.1278 35.5628 41.3876 35.9385C41.6734 36.3409 42.0371 36.6495 42.4787 36.8641C42.9204 37.1056 43.44 37.1861 44.0375 37.1056C44.661 37.0251 45.3625 36.6897 46.1419 36.0994C46.7914 35.5897 47.337 34.7713 47.7786 33.6444C48.1423 32.6785 48.4281 31.3236 48.6359 29.5796C48.8438 27.8356 48.8048 25.5416 48.519 22.6975C48.0514 24.361 47.4149 25.6355 46.6095 26.5209C45.8041 27.4063 44.9988 28.0502 44.1934 28.4527C43.2581 28.9357 42.2839 29.1905 41.2707 29.2174C39.9197 29.1637 38.7636 28.9893 37.8024 28.6942C36.8411 28.3722 36.0487 27.9429 35.4252 27.4063C34.8017 26.8697 34.3081 26.2392 33.9444 25.5148C33.6066 24.7635 33.3598 23.9317 33.204 23.0195C33.0481 22.1073 32.9701 21.195 32.9701 20.2828C32.9701 19.3437 32.9701 18.4717 32.9701 17.6668C32.9961 16.8619 33.0091 16.1374 33.0091 15.4935C33.0091 14.8227 32.9442 14.2861 32.8143 13.8837C32.6584 13.4812 32.4505 13.0788 32.1908 12.6763C31.9829 12.3275 31.6971 11.9519 31.3334 11.5494C30.9437 11.1201 30.4891 10.7177 29.9695 10.342Z" fill="white"/>
<path d="M24.046 32.0346C24.3058 31.6321 24.5136 31.2565 24.6695 30.9077C24.8254 30.5589 24.9553 30.2638 25.0592 30.0223C25.1631 29.7272 25.2411 29.4589 25.293 29.2174C25.319 29.0564 25.332 28.5869 25.332 27.8088C25.332 27.0307 25.306 26.0514 25.2541 24.8708C25.2281 23.6903 25.1891 22.3621 25.1372 20.8865C25.1112 19.4108 25.0592 17.9083 24.9813 16.3789C24.9293 14.8496 24.8644 13.3605 24.7864 11.9116C24.7345 10.4628 24.6825 9.16148 24.6306 8.00776C24.5786 6.82721 24.5266 5.86131 24.4747 5.11005C24.4227 4.35879 24.3837 3.9295 24.3578 3.82218C24.3058 3.6612 24.2149 3.50021 24.085 3.33923C23.8252 3.01726 23.3835 2.70871 22.76 2.41357C24.085 2.06478 25.0982 1.78305 25.7996 1.56841C26.2153 1.46109 26.579 1.35376 26.8908 1.24644C27.1766 1.13912 27.4623 1.0318 27.7481 0.924473C27.9819 0.817151 28.2417 0.696413 28.5275 0.56226C28.8133 0.401276 29.0731 0.226877 29.3069 0.0390625C29.177 0.817151 29.0731 1.56841 28.9952 2.29284C28.9172 3.01726 28.8523 3.68803 28.8003 4.30513C28.7483 5.00273 28.7224 5.6735 28.7224 6.31743C28.5925 7.63213 28.5145 9.06757 28.4885 10.6237C28.4885 12.1531 28.5015 13.7093 28.5275 15.2923C28.5535 16.8753 28.6055 18.418 28.6834 19.9206C28.7613 21.4231 28.8393 22.7914 28.9172 24.0256C29.0211 25.233 29.1121 26.266 29.19 27.1246C29.2939 27.9563 29.3719 28.4929 29.4238 28.7344C29.5277 29.1369 29.6317 29.5259 29.7356 29.9016C29.8395 30.2235 29.9564 30.5589 30.0863 30.9077C30.2162 31.2833 30.3721 31.5785 30.5539 31.7931H26.7739C26.4361 31.7931 26.1114 31.8065 25.7996 31.8334C25.5139 31.8602 25.2151 31.887 24.9033 31.9139C24.5916 31.9407 24.3058 31.9809 24.046 32.0346Z" fill="white"/>
<path d="M0.78125 3.138C2.34004 3.27215 3.70397 3.35264 4.87306 3.37947C6.06813 3.4063 7.08134 3.41972 7.91269 3.41972C8.87394 3.41972 9.7053 3.39289 10.4068 3.33923C11.1342 3.25874 12.0824 3.15141 13.2515 3.01726C14.2388 2.88311 15.5118 2.70871 17.0706 2.49406C18.6293 2.25259 20.5259 1.94403 22.7601 1.56841C22.4743 2.02453 22.2275 2.50748 22.0197 3.01726C21.8378 3.50021 21.682 3.94292 21.5521 4.34538C21.4222 4.82833 21.3053 5.29786 21.2013 5.75398C21.1234 6.26377 21.0325 6.89429 20.9286 7.64554C20.8246 8.28948 20.6947 9.10781 20.5389 10.1005C20.409 11.0664 20.2401 12.2202 20.0323 13.5617C19.2529 11.4689 18.4605 9.85907 17.6551 8.73218C16.8757 7.6053 16.1483 6.77355 15.4728 6.23694C14.6934 5.61983 13.953 5.27103 13.2515 5.19054C12.2383 5.19054 11.407 5.39177 10.7575 5.79423C10.108 6.19669 9.5754 6.71989 9.15972 7.36382C8.77003 7.98093 8.47126 8.66511 8.26342 9.41637C8.05558 10.1408 7.91269 10.8518 7.83475 11.5494C7.75682 12.2202 7.70486 12.8239 7.67888 13.3605C7.6529 13.8703 7.62692 14.219 7.60094 14.4069C8.51023 14.3532 9.27663 14.2861 9.90015 14.2056C10.5237 14.1251 11.0173 14.0446 11.381 13.9642C11.8226 13.8568 12.1734 13.7495 12.4332 13.6422C12.8229 13.4275 13.2126 13.1727 13.6023 12.8775C13.94 12.6092 14.2907 12.2872 14.6544 11.9116C15.0441 11.536 15.3819 11.0799 15.6677 10.5433C15.5118 11.5092 15.3689 12.3141 15.239 12.958C15.1351 13.6019 15.0441 14.1117 14.9662 14.4874C14.8623 14.9435 14.7973 15.2923 14.7713 15.5337C14.7194 15.7752 14.6544 16.1106 14.5765 16.5399C14.4986 16.9155 14.4076 17.3985 14.3037 17.9888C14.1998 18.579 14.0829 19.3169 13.953 20.2023C13.6412 19.6388 13.3165 19.1827 12.9787 18.8339C12.641 18.4583 12.3293 18.1632 12.0435 17.9485C11.7057 17.707 11.381 17.5192 11.0692 17.3851C10.7315 17.2777 10.3678 17.1704 9.97808 17.0631C9.64035 16.9826 9.23766 16.9021 8.77003 16.8216C8.32837 16.7143 7.84774 16.6204 7.32815 16.5399C7.38011 17.9888 7.45805 19.2364 7.56197 20.2828C7.66589 21.3023 7.75682 22.1609 7.83475 22.8585C7.93867 23.6634 8.04259 24.3342 8.14651 24.8708C8.27641 25.4074 8.48425 25.9843 8.77003 26.6014C9.00384 27.138 9.32859 27.7551 9.74427 28.4527C10.1859 29.1235 10.7445 29.8479 11.42 30.626C10.9004 30.4918 10.3548 30.3979 9.78324 30.3443C9.21168 30.2906 8.70508 30.2504 8.26342 30.2235C7.71785 30.1967 7.19825 30.1967 6.70463 30.2235C6.18504 30.2504 5.61349 30.304 4.98997 30.3845C4.47038 30.4382 3.87284 30.5187 3.19737 30.626C2.52189 30.7333 1.80745 30.854 1.05404 30.9882C1.49569 30.5321 1.85941 30.076 2.14519 29.6198C2.43096 29.1637 2.6388 28.7613 2.7687 28.4125C2.92458 28.01 3.0285 27.621 3.08046 27.2453C3.10644 26.9234 3.11943 26.2258 3.11943 25.1525C3.11943 24.0525 3.10644 22.778 3.08046 21.3292C3.05448 19.8535 3.01551 18.2973 2.96355 16.6606C2.91159 15.024 2.85963 13.4946 2.80767 12.0726C2.75571 10.6237 2.69076 9.38953 2.61282 8.36997C2.56086 7.35041 2.49591 6.7333 2.41797 6.51866C2.31406 6.25035 2.19715 5.9418 2.06725 5.593C1.85941 5.02956 1.43074 4.21122 0.78125 3.138Z" fill="white"/>
</svg>
