<svg width="25" height="25" viewBox="0 0 25 25" fill="none" xmlns="http://www.w3.org/2000/svg">
<g clip-path="url(#clip0_3_37)">
<path d="M3.125 12.5L12.5 3.125L21.875 12.5" stroke="white" stroke-width="2" stroke-linecap="round" stroke-linejoin="round"/>
<path d="M5.72917 14.5833V21.3542C5.72917 21.4923 5.78404 21.6248 5.88171 21.7224C5.97939 21.8201 6.11187 21.875 6.25 21.875H9.89583C10.034 21.875 10.1664 21.8201 10.2641 21.7224C10.3618 21.6248 10.4167 21.4923 10.4167 21.3542V17.7083C10.4167 17.4321 10.5264 17.1671 10.7218 16.9718C10.9171 16.7764 11.1821 16.6667 11.4583 16.6667H13.5417C13.8179 16.6667 14.0829 16.7764 14.2782 16.9718C14.4736 17.1671 14.5833 17.4321 14.5833 17.7083V21.3542C14.5833 21.4923 14.6382 21.6248 14.7359 21.7224C14.8336 21.8201 14.966 21.875 15.1042 21.875H18.75C18.8881 21.875 19.0206 21.8201 19.1183 21.7224C19.216 21.6248 19.2708 21.4923 19.2708 21.3542V14.5833" stroke="white" stroke-width="2" stroke-linecap="round" stroke-linejoin="round"/>
</g>
<defs>
<clipPath id="clip0_3_37">
<rect width="25" height="25" fill="white"/>
</clipPath>
</defs>
</svg>
