<svg width="20" height="20" viewBox="0 0 20 20" fill="none" xmlns="http://www.w3.org/2000/svg">
<g clip-path="url(#clip0_19_548)">
<path d="M17.0833 1.25H2.91667C1.99619 1.25 1.25 1.99619 1.25 2.91667V17.0833C1.25 18.0038 1.99619 18.75 2.91667 18.75H17.0833C18.0038 18.75 18.75 18.0038 18.75 17.0833V2.91667C18.75 1.99619 18.0038 1.25 17.0833 1.25Z" stroke="white" stroke-width="2" stroke-linecap="round" stroke-linejoin="round"/>
<path d="M1.25 15L7.5375 8.71249L11.4875 12.6625L14.1167 10.0333L18.75 14.5833" stroke="white" stroke-width="2" stroke-linecap="round" stroke-linejoin="round"/>
<path d="M12.9167 7.49999C13.8371 7.49999 14.5833 6.7538 14.5833 5.83332C14.5833 4.91285 13.8371 4.16666 12.9167 4.16666C11.9962 4.16666 11.25 4.91285 11.25 5.83332C11.25 6.7538 11.9962 7.49999 12.9167 7.49999Z" stroke="white" stroke-width="2" stroke-linecap="round" stroke-linejoin="round"/>
</g>
<defs>
<clipPath id="clip0_19_548">
<rect width="20" height="20" fill="white"/>
</clipPath>
</defs>
</svg>
