<svg width="25" height="25" viewBox="0 0 25 25" fill="none" xmlns="http://www.w3.org/2000/svg">
<g clip-path="url(#clip0_21_1324)">
<path d="M16.146 16.6666C14.7531 16.6655 13.3857 16.2919 12.1857 15.5846C10.9856 14.8773 9.99651 13.862 9.32078 12.6439C8.64506 11.4258 8.30731 10.0492 8.34252 8.65667C8.37773 7.26413 8.78462 5.90634 9.52104 4.72394C8.22176 5.21927 7.06707 6.03185 6.16219 7.08764C5.25731 8.14343 4.63101 9.40887 4.34035 10.7687C4.04968 12.1284 4.1039 13.5393 4.49806 14.8728C4.89222 16.2063 5.61379 17.4199 6.59703 18.4032C7.58026 19.3864 8.7939 20.108 10.1274 20.5021C11.4608 20.8963 12.8717 20.9505 14.2315 20.6598C15.5913 20.3692 16.8568 19.7429 17.9125 18.838C18.9683 17.9331 19.7809 16.7784 20.2763 15.4791C19.0376 16.2533 17.6067 16.6647 16.146 16.6666Z" stroke="#FFF8F8" stroke-width="2" stroke-linecap="round" stroke-linejoin="round"/>
</g>
<defs>
<clipPath id="clip0_21_1324">
<rect width="25" height="25" fill="white"/>
</clipPath>
</defs>
</svg>
