<svg width="19" height="19" viewBox="0 0 19 19" fill="none" xmlns="http://www.w3.org/2000/svg">
<path d="M13.1458 13.6666C11.7528 13.6655 10.3855 13.2919 9.18543 12.5846C7.98538 11.8773 6.99626 10.862 6.32054 9.64393C5.64481 8.42582 5.30706 7.0492 5.34228 5.65667C5.37749 4.26413 5.78438 2.90634 6.5208 1.72394C5.22151 2.21927 4.06683 3.03185 3.16195 4.08764C2.25707 5.14343 1.63077 6.40887 1.3401 7.76866C1.04944 9.12844 1.10366 10.5393 1.49782 11.8728C1.89198 13.2063 2.61355 14.4199 3.59678 15.4032C4.58002 16.3864 5.79366 17.108 7.12713 17.5021C8.4606 17.8963 9.8715 17.9505 11.2313 17.6598C12.5911 17.3692 13.8565 16.7429 14.9123 15.838C15.9681 14.9331 16.7807 13.7784 17.276 12.4791C16.0374 13.2533 14.6065 13.6647 13.1458 13.6666Z" stroke="black" stroke-width="2" stroke-linecap="round" stroke-linejoin="round"/>
</svg>
