<svg width="25" height="25" viewBox="0 0 25 25" fill="none" xmlns="http://www.w3.org/2000/svg">
<path d="M12.5004 14.6379L14.2191 15.6955C14.37 15.7903 14.5243 15.7826 14.6819 15.6725C14.8395 15.5623 14.899 15.4144 14.8603 15.2288L14.3994 13.2636L15.9299 11.9475C16.0768 11.818 16.1188 11.6681 16.0561 11.4978C15.9933 11.3275 15.8671 11.2337 15.6775 11.2163L13.6804 11.034L12.889 9.1991C12.8155 9.03088 12.686 8.94677 12.5004 8.94677C12.3148 8.94677 12.1853 9.03088 12.1119 9.1991L11.3205 11.034L9.32333 11.2163C9.13374 11.2337 9.00753 11.3275 8.94468 11.4978C8.882 11.6681 8.9241 11.818 9.07098 11.9475L10.6015 13.2636L10.1405 15.2288C10.1018 15.4144 10.1613 15.5623 10.3189 15.6725C10.4765 15.7826 10.6308 15.7903 10.7817 15.6955L12.5004 14.6379ZM9.45145 19.7921H6.89155C6.42541 19.7921 6.02836 19.6281 5.70041 19.3004C5.37263 18.9725 5.20874 18.5754 5.20874 18.1093V15.5494L3.34364 13.6783C3.1794 13.51 3.05856 13.3234 2.98114 13.1184C2.9037 12.9134 2.86499 12.7074 2.86499 12.5004C2.86499 12.2935 2.9037 12.0875 2.98114 11.8824C3.05856 11.6774 3.1794 11.4908 3.34364 11.3225L5.20874 9.45145V6.89155C5.20874 6.42542 5.37263 6.02837 5.70041 5.70042C6.02836 5.37263 6.42541 5.20874 6.89155 5.20874H9.45145L11.3225 3.34364C11.4908 3.1794 11.6774 3.05857 11.8824 2.98114C12.0875 2.9037 12.2935 2.86499 12.5004 2.86499C12.7074 2.86499 12.9134 2.9037 13.1184 2.98114C13.3234 3.05857 13.51 3.1794 13.6783 3.34364L15.5494 5.20874H18.1093C18.5754 5.20874 18.9725 5.37263 19.3004 5.70042C19.6281 6.02837 19.7921 6.42542 19.7921 6.89155V9.45145L21.6571 11.3225C21.8214 11.4908 21.9422 11.6774 22.0196 11.8824C22.0971 12.0875 22.1359 12.2935 22.1359 12.5004C22.1359 12.7074 22.0971 12.9134 22.0196 13.1184C21.9422 13.3234 21.8214 13.51 21.6571 13.6783L19.7921 15.5494V18.1093C19.7921 18.5754 19.6281 18.9725 19.3004 19.3004C18.9725 19.6281 18.5754 19.7921 18.1093 19.7921H15.5494L13.6783 21.6571C13.51 21.8214 13.3234 21.9423 13.1184 22.0196C12.9134 22.0971 12.7074 22.1359 12.5004 22.1359C12.2935 22.1359 12.0875 22.0971 11.8824 22.0196C11.6774 21.9423 11.4908 21.8214 11.3225 21.6571L9.45145 19.7921ZM9.89624 18.7504L12.0397 20.8939C12.1599 21.014 12.3134 21.0741 12.5004 21.0741C12.6874 21.0741 12.841 21.014 12.9611 20.8939L15.1046 18.7504H18.1093C18.2963 18.7504 18.4499 18.6904 18.5703 18.5703C18.6904 18.4499 18.7504 18.2963 18.7504 18.1093V15.1046L20.8939 12.9611C21.014 12.841 21.0741 12.6874 21.0741 12.5004C21.0741 12.3134 21.014 12.1599 20.8939 12.0397L18.7504 9.89624V6.89155C18.7504 6.70458 18.6904 6.55093 18.5703 6.43061C18.4499 6.31048 18.2963 6.25042 18.1093 6.25042H15.1046L12.9611 4.10692C12.841 3.98678 12.6874 3.92672 12.5004 3.92672C12.3134 3.92672 12.1599 3.98678 12.0397 4.10692L9.89624 6.25042H6.89155C6.70458 6.25042 6.55093 6.31048 6.43061 6.43061C6.31048 6.55093 6.25041 6.70458 6.25041 6.89155V9.89624L4.10691 12.0397C3.98678 12.1599 3.92671 12.3134 3.92671 12.5004C3.92671 12.6874 3.98678 12.841 4.10691 12.9611L6.25041 15.1046V18.1093C6.25041 18.2963 6.31048 18.4499 6.43061 18.5703C6.55093 18.6904 6.70458 18.7504 6.89155 18.7504H9.89624Z" fill="white"/>
</svg>
