<svg width="20" height="20" viewBox="0 0 20 20" fill="none" xmlns="http://www.w3.org/2000/svg">
<path d="M10.0003 11.7103L11.3753 12.5564C11.496 12.6322 11.6194 12.6261 11.7455 12.538C11.8716 12.4498 11.9192 12.3315 11.8882 12.183L11.5195 10.6109L12.7439 9.55803C12.8614 9.45442 12.895 9.33449 12.8449 9.19824C12.7946 9.06199 12.6937 8.98692 12.542 8.97303L10.9443 8.8272L10.3112 7.35928C10.2524 7.2247 10.1488 7.15741 10.0003 7.15741C9.85185 7.15741 9.74824 7.2247 9.68949 7.35928L9.05637 8.8272L7.45866 8.97303C7.30699 8.98692 7.20602 9.06199 7.15574 9.19824C7.1056 9.33449 7.13928 9.45442 7.25678 9.55803L8.48116 10.6109L8.11241 12.183C8.08144 12.3315 8.12901 12.4498 8.25512 12.538C8.38123 12.6261 8.50463 12.6322 8.62533 12.5564L10.0003 11.7103ZM7.56116 15.8337H5.51324C5.14033 15.8337 4.82269 15.7025 4.56033 15.4403C4.2981 15.178 4.16699 14.8603 4.16699 14.4874V12.4395L2.67491 10.9426C2.54352 10.808 2.44685 10.6587 2.38491 10.4947C2.32296 10.3307 2.29199 10.1659 2.29199 10.0003C2.29199 9.83477 2.32296 9.66998 2.38491 9.50595C2.44685 9.34192 2.54352 9.19262 2.67491 9.05803L4.16699 7.56116V5.51324C4.16699 5.14033 4.2981 4.82269 4.56033 4.56033C4.82269 4.2981 5.14033 4.16699 5.51324 4.16699H7.56116L9.05803 2.67491C9.19262 2.54352 9.34192 2.44685 9.50595 2.38491C9.66998 2.32296 9.83477 2.29199 10.0003 2.29199C10.1659 2.29199 10.3307 2.32296 10.4947 2.38491C10.6587 2.44685 10.808 2.54352 10.9426 2.67491L12.4395 4.16699H14.4874C14.8603 4.16699 15.178 4.2981 15.4403 4.56033C15.7025 4.82269 15.8337 5.14033 15.8337 5.51324V7.56116L17.3257 9.05803C17.4571 9.19262 17.5538 9.34192 17.6157 9.50595C17.6777 9.66998 17.7087 9.83477 17.7087 10.0003C17.7087 10.1659 17.6777 10.3307 17.6157 10.4947C17.5538 10.6587 17.4571 10.808 17.3257 10.9426L15.8337 12.4395V14.4874C15.8337 14.8603 15.7025 15.178 15.4403 15.4403C15.178 15.7025 14.8603 15.8337 14.4874 15.8337H12.4395L10.9426 17.3257C10.808 17.4571 10.6587 17.5538 10.4947 17.6157C10.3307 17.6777 10.1659 17.7087 10.0003 17.7087C9.83477 17.7087 9.66998 17.6777 9.50595 17.6157C9.34192 17.5538 9.19262 17.4571 9.05803 17.3257L7.56116 15.8337ZM7.91699 15.0003L9.63178 16.7151C9.72789 16.8112 9.85074 16.8593 10.0003 16.8593C10.1499 16.8593 10.2728 16.8112 10.3689 16.7151L12.0837 15.0003H14.4874C14.637 15.0003 14.7599 14.9523 14.8562 14.8562C14.9523 14.7599 15.0003 14.637 15.0003 14.4874V12.0837L16.7151 10.3689C16.8112 10.2728 16.8593 10.1499 16.8593 10.0003C16.8593 9.85074 16.8112 9.72789 16.7151 9.63178L15.0003 7.91699V5.51324C15.0003 5.36366 14.9523 5.24074 14.8562 5.14449C14.7599 5.04838 14.637 5.00033 14.4874 5.00033H12.0837L10.3689 3.28553C10.2728 3.18942 10.1499 3.14137 10.0003 3.14137C9.85074 3.14137 9.72789 3.18942 9.63178 3.28553L7.91699 5.00033H5.51324C5.36366 5.00033 5.24074 5.04838 5.14449 5.14449C5.04838 5.24074 5.00033 5.36366 5.00033 5.51324V7.91699L3.28553 9.63178C3.18942 9.72789 3.14137 9.85074 3.14137 10.0003C3.14137 10.1499 3.18942 10.2728 3.28553 10.3689L5.00033 12.0837V14.4874C5.00033 14.637 5.04838 14.7599 5.14449 14.8562C5.24074 14.9523 5.36366 15.0003 5.51324 15.0003H7.91699Z" fill="white"/>
</svg>
