<svg width="20" height="20" viewBox="0 0 20 20" fill="none" xmlns="http://www.w3.org/2000/svg">
<path d="M10.0003 12.4798C9.88921 12.4798 9.78505 12.4625 9.68783 12.4277C9.5906 12.393 9.50033 12.334 9.41699 12.2507L5.58366 8.41732C5.43088 8.26454 5.35449 8.0701 5.35449 7.83398C5.35449 7.59787 5.43088 7.40343 5.58366 7.25065C5.73644 7.09787 5.93088 7.02148 6.16699 7.02148C6.4031 7.02148 6.59755 7.09787 6.75033 7.25065L10.0003 10.5007L13.2503 7.25065C13.4031 7.09787 13.5975 7.02148 13.8337 7.02148C14.0698 7.02148 14.2642 7.09787 14.417 7.25065C14.5698 7.40343 14.6462 7.59787 14.6462 7.83398C14.6462 8.0701 14.5698 8.26454 14.417 8.41732L10.5837 12.2507C10.5003 12.334 10.41 12.393 10.3128 12.4277C10.2156 12.4625 10.1114 12.4798 10.0003 12.4798Z" fill="white"/>
</svg>
